# xmcd CD database file
#
# Track frame offsets:
#	150
#	9007
#	23980
#	37027
#	44958
#	53494
#	66714
#	72746
#	82868
#	93187
#	100456
#	117556
#	124713
#	138775
#	154844
#
# Disc length: 2250 seconds
#
# Revision: 0
# Processed by: cddbd v1.5.2PL0 Copyright (c) Steve Scherf et al.
# Submitted via: CDex 1.95
#
DISCID=d008c80f
DTITLE=Alan Jackson - Precious Memories
DYEAR=2006
DGENRE=Country
TTITLE0=Blessed Assurance
TTITLE1=Softly And Tenderly
TTITLE2=I Love To Tell The Story
TTITLE3=When We All Get To Heaven
TTITLE4='Tis So Sweet To Trust In Jesus
TTITLE5=In The Garden
TTITLE6=Are You Washed In The blood
TTITLE7=I'll Fly Away
TTITLE8=What A Friend We Have In Jeseus
TTITLE9=Standing On The Promises
TTITLE10=Turn Your Eyes Upon Jesus
TTITLE11=Leaning On The Everlasting Arms
TTITLE12=The Old Rugged Cross
TTITLE13=How Great Thou Art
TTITLE14=I Want To Stroll Over Heaven With You
EXTD=YEAR: 2006
EXTT0=
EXTT1=
EXTT2=
EXTT3=
EXTT4=
EXTT5=
EXTT6=
EXTT7=
EXTT8=
EXTT9=
EXTT10=
EXTT11=
EXTT12=
EXTT13=
EXTT14=
PLAYORDER=
